<svg width="16" height="20" viewBox="0 0 16 20" fill="none" xmlns="http://www.w3.org/2000/svg">
<path d="M10.8288 5.63871C10.8288 5.63871 11.881 5.13951 8.09198 5.08373C6.73498 5.06375 5.40254 5.44662 4.26314 6.18392C3.12375 6.92121 2.22857 7.97982 1.69082 9.22587C1.15306 10.4719 0.996883 11.8495 1.24203 13.1843C1.48717 14.5191 2.12263 15.7512 3.06804 16.7249C4.01346 17.6986 5.22636 18.37 6.55338 18.6543C7.88041 18.9387 9.26194 18.8231 10.5233 18.3223C11.7846 17.8214 12.8691 16.9578 13.6396 15.8406C14.4102 14.7234 14.8321 13.4028 14.8521 12.0458" stroke="#D9DCDB" stroke-width="1.5" stroke-miterlimit="10" stroke-linecap="round"/>
<path d="M8.14258 1.65315L11.5226 5.13419L8.04158 8.51423" stroke="#D9DCDB" stroke-width="1.5" stroke-linecap="round" stroke-linejoin="round"/>
</svg>
