<svg width="16" height="20" viewBox="0 0 16 20" fill="none" xmlns="http://www.w3.org/2000/svg">
<path d="M10.7999 5.08649C10.7999 5.08649 11.8521 4.58729 8.06305 4.53151C6.70605 4.51154 5.37361 4.8944 4.23421 5.6317C3.09482 6.36899 2.19964 7.4276 1.66189 8.67366C1.12413 9.91971 0.967952 11.2972 1.2131 12.6321C1.45824 13.9669 2.0937 15.199 3.03911 16.1727C3.98452 17.1464 5.19743 17.8178 6.52445 18.1021C7.85148 18.3865 9.23301 18.2709 10.4944 17.7701C11.7557 17.2692 12.8402 16.4056 13.6107 15.2884C14.3812 14.1712 14.8031 12.8506 14.8231 11.4936" stroke="#87E0E5" stroke-width="1.5" stroke-miterlimit="10" stroke-linecap="round"/>
<path d="M8.11365 1.10094L11.4937 4.58198L8.01265 7.96202" stroke="#87E0E5" stroke-width="1.5" stroke-linecap="round" stroke-linejoin="round"/>
</svg>
