<svg width="12" height="14" viewBox="0 0 12 14" fill="none" xmlns="http://www.w3.org/2000/svg">
<path d="M7.86816 3.60736C7.86816 3.60736 8.57177 3.27353 6.03797 3.23623C5.13052 3.22287 4.23949 3.4789 3.47755 3.97194C2.71562 4.46499 2.117 5.1729 1.75739 6.00616C1.39778 6.83942 1.29334 7.76061 1.45727 8.65323C1.6212 9.54585 2.04615 10.3698 2.67837 11.0209C3.31058 11.672 4.12168 12.121 5.00908 12.3112C5.89649 12.5013 6.82035 12.424 7.66384 12.0891C8.50732 11.7542 9.23255 11.1767 9.74781 10.4296C10.2631 9.68247 10.5452 8.79936 10.5586 7.89191" stroke="#D9DCDB" stroke-width="1.2" stroke-miterlimit="10" stroke-linecap="round"/>
<path d="M6.07178 0.942123L8.33208 3.26997L6.00424 5.53027" stroke="#D9DCDB" stroke-width="1.2" stroke-linecap="round" stroke-linejoin="round"/>
</svg>
