<svg width="11" height="14" viewBox="0 0 11 14" fill="none" xmlns="http://www.w3.org/2000/svg">
<path d="M7.55341 3.73272C7.55341 3.73272 8.25702 3.39889 5.72321 3.36159C4.81577 3.34824 3.92473 3.60427 3.1628 4.09731C2.40086 4.59036 1.80224 5.29827 1.44263 6.13153C1.08302 6.96479 0.978581 7.88597 1.14251 8.77859C1.30645 9.67121 1.73139 10.4952 2.36361 11.1463C2.99582 11.7974 3.80692 12.2464 4.69433 12.4365C5.58173 12.6267 6.50559 12.5494 7.34908 12.2145C8.19256 11.8795 8.91779 11.302 9.43305 10.5549C9.94831 9.80783 10.2305 8.92473 10.2438 8.01728" stroke="#242C28" stroke-width="1.2" stroke-miterlimit="10" stroke-linecap="round"/>
<path d="M5.75702 1.06749L8.01732 3.39533L5.68948 5.65563" stroke="#242C28" stroke-width="1.2" stroke-linecap="round" stroke-linejoin="round"/>
</svg>
